<svg height="512" viewBox="0 0 64 64" width="512" xmlns="http://www.w3.org/2000/svg"><g id="Thinking"><path d="m61 53v4a4 4 0 0 1 -4 4h-50a4 4 0 0 1 -4-4v-4h19v2a2.006 2.006 0 0 0 2 2h16a2.006 2.006 0 0 0 2-2v-2z" fill="#acabb1"/><path d="m61 53v4a4 4 0 0 1 -4 4h-4a4 4 0 0 0 4-4v-4z" fill="#787680"/><path d="m59 13v40h-17v2a2.006 2.006 0 0 1 -2 2h-16a2.006 2.006 0 0 1 -2-2v-2h-17v-40a4 4 0 0 1 4-4h46a4 4 0 0 1 4 4z" fill="#ff7956"/><path d="m38 53h4v2a2.006 2.006 0 0 1 -2 2h-4a2.006 2.006 0 0 0 2-2z" fill="#ff6243"/><path d="m59 13v40h-4v-40a4 4 0 0 0 -4-4h4a4 4 0 0 1 4 4z" fill="#ff6243"/><path d="m55 15v34h-46v-34a2.006 2.006 0 0 1 2-2h42a2.006 2.006 0 0 1 2 2z" fill="#46f8ff"/><path d="m55 15v34h-4v-34a2.006 2.006 0 0 0 -2-2h4a2.006 2.006 0 0 1 2 2z" fill="#00d7df"/><path d="m49.6 29.15a5.924 5.924 0 0 1 1.4 3.85 6 6 0 0 1 -6 6 6 6 0 0 1 -12 0v-16a6 6 0 0 1 11.67-1.96 6 6 0 0 1 5.33 5.96 5.909 5.909 0 0 1 -.4 2.15z" fill="#ffde55"/><path d="m51 33a6 6 0 0 1 -6 6 6 6 0 0 1 -6 6 5.8 5.8 0 0 1 -2-.35 5.981 5.981 0 0 0 4-5.65 6 6 0 0 0 6-6 5.924 5.924 0 0 0 -1.4-3.85 5.909 5.909 0 0 0 .4-2.15 6 6 0 0 0 -5.33-5.96 5.973 5.973 0 0 0 -3.67-3.69 5.8 5.8 0 0 1 2-.35 6 6 0 0 1 5.67 4.04 6 6 0 0 1 5.33 5.96 5.909 5.909 0 0 1 -.4 2.15 5.924 5.924 0 0 1 1.4 3.85z" fill="#ebbf00"/><circle cx="23" cy="31" fill="#c6c5ca" r="10"/><path d="m33 31a10 10 0 0 1 -11.99 9.8 10.005 10.005 0 0 0 0-19.6 10 10 0 0 1 11.99 9.8z" fill="#898890"/><path d="m61 52h-1v-39a5.006 5.006 0 0 0 -5-5h-46a5.006 5.006 0 0 0 -5 5v39h-1a1 1 0 0 0 -1 1v4a5.006 5.006 0 0 0 5 5h50a5.006 5.006 0 0 0 5-5v-4a1 1 0 0 0 -1-1zm-55-39a3 3 0 0 1 3-3h46a3 3 0 0 1 3 3v39h-16a1 1 0 0 0 -1 1v2a1 1 0 0 1 -1 1h-16a1 1 0 0 1 -1-1v-2a1 1 0 0 0 -1-1h-16zm54 44a3 3 0 0 1 -3 3h-50a3 3 0 0 1 -3-3v-3h17v1a3 3 0 0 0 3 3h16a3 3 0 0 0 3-3v-1h17z"/><path d="m27 52h10v2h-10z"/><path d="m8 56h2v2h-2z"/><path d="m12 56h2v2h-2z"/><path d="m16 56h2v2h-2z"/><path d="m46 56h2v2h-2z"/><path d="m50 56h2v2h-2z"/><path d="m54 56h2v2h-2z"/><path d="m56 49v-34a3 3 0 0 0 -3-3h-42a3 3 0 0 0 -3 3v34a1 1 0 0 0 1 1h46a1 1 0 0 0 1-1zm-2-1h-44v-33a1 1 0 0 1 1-1h42a1 1 0 0 1 1 1z"/><path d="m51 27a7.011 7.011 0 0 0 -5.618-6.862 7 7 0 0 0 -13.382 2.862v1.7a11 11 0 1 0 0 12.61v1.69a7 7 0 0 0 13.931.931 6.956 6.956 0 0 0 4.776-10.939 6.975 6.975 0 0 0 .293-1.992zm-28 13a9 9 0 1 1 9-9 9.011 9.011 0 0 1 -9 9zm27-7a5 5 0 0 1 -10 0h-2a7 7 0 0 0 5.908 6.906 4.995 4.995 0 0 1 -9.908-.906v-16a4.988 4.988 0 0 1 9.036-2.926 7.006 7.006 0 0 0 -6.036 6.926h2a5 5 0 0 1 4.9-4.99 5 5 0 0 1 -4.9 5.99v2a7.008 7.008 0 0 0 7-7c0-.2-.013-.4-.03-.592a5 5 0 0 1 -1.97 9.592v2a6.989 6.989 0 0 0 5.634-2.863 4.976 4.976 0 0 1 .366 1.863z"/><path d="m19.293 26.293-4 4a1 1 0 0 0 0 1.414l4 4 1.414-1.414-3.293-3.293 3.293-3.293z"/><path d="m25.293 27.707 3.293 3.293-3.293 3.293 1.414 1.414 4-4a1 1 0 0 0 0-1.414l-4-4z"/><path d="m16.917 30h12.166v2h-12.166z" transform="matrix(.165 -.986 .986 .165 -11.362 48.585)"/></g></svg>