<svg id="Capa_1" enable-background="new 0 0 512.004 512.004" height="512" viewBox="0 0 512.004 512.004" width="512" xmlns="http://www.w3.org/2000/svg"><g><g><path d="m440.472 120.573c-6.961 0-366.963 0-368.981 0-19.219 0-34.855 15.636-34.855 34.856v261.447c0 16.999 12.597 32.73 29.36 35.416h379.972c16.763-2.686 29.36-18.417 29.36-35.416 0-8.699 0-253.578 0-261.447-.001-19.219-15.637-34.856-34.856-34.856z" fill="#695d67"/><path d="m77.385 416.876v-261.447c0-19.219 15.636-34.856 34.855-34.856-24.661 0-40.333 0-40.75 0-19.219 0-34.855 15.636-34.855 34.856v261.447c0 16.999 12.597 32.73 29.36 35.416h40.75c-16.763-2.686-29.36-18.418-29.36-35.416z" fill="#544e55"/><path d="m498.662 451.292h-485.363c-3.214 0-5.819 2.631-5.819 5.876v20.213c0 14.998 12.152 27.269 27.005 27.269h442.992c14.853 0 27.005-12.271 27.005-27.269v-20.213c0-3.245-2.606-5.876-5.82-5.876z" fill="#dfebfa"/><path d="m498.662 451.292h-485.363c-3.214 0-5.819 2.631-5.819 5.876v20.213c0 14.998 12.152 27.269 27.005 27.269h442.992c14.853 0 27.005-12.271 27.005-27.269v-20.213c0-3.245-2.606-5.876-5.82-5.876z" fill="#dfebfa"/><path d="m91.449 477.381v-20.213c0-3.245 2.605-5.876 5.819-5.876h-83.969c-3.214 0-5.819 2.631-5.819 5.876v20.213c0 14.998 12.152 27.269 27.005 27.269h83.969c-14.853 0-27.005-12.271-27.005-27.269z" fill="#b1dbfc"/><path d="m183.488 451.292v13.561c0 6.665 5.4 12.118 12.001 12.118h120.984c6.601 0 12.001-5.453 12.001-12.118v-13.561" fill="#b1dbfc"/><path d="m248.988 464.853v-13.561h-65.5v13.561c0 6.665 5.4 12.118 12.001 12.118h65.5c-6.601 0-12.001-5.453-12.001-12.118z" fill="#8bcaff"/><path d="m437.761 151.652c-13.851 0-348.884 0-363.561 0-3.454 0-6.253 2.8-6.253 6.254v256.102c0 3.454 2.8 6.254 6.253 6.254h363.561c3.453 0 6.253-2.8 6.253-6.254 0-12.692 0-245.976 0-256.102 0-3.454-2.8-6.254-6.253-6.254z" fill="#ffe181"/><path d="m108.697 414.008c0-8.058 0-239.846 0-256.102 0-3.454 2.8-6.254 6.253-6.254-22.675 0-37.872 0-40.75 0-3.454 0-6.253 2.8-6.253 6.254v256.102c0 3.454 2.8 6.254 6.253 6.254h40.75c-3.453 0-6.253-2.8-6.253-6.254z" fill="#fec458"/><path d="m379.344 7.646h-201.633l-58.221 58.222v300.495c0 7.124 5.775 12.899 12.899 12.899h247.183c7.124 0 12.899-5.775 12.899-12.899v-345.589c0-7.25-5.877-13.128-13.127-13.128z" fill="#dfebfa"/><path d="m143.99 365.345v-323.977l-24.5 24.5v300.495c0 7.124 5.775 12.899 12.899 12.899h21.182c-5.599-2.149-9.581-7.561-9.581-13.917z" fill="#b1dbfc"/><path d="m119.49 65.868h45.094c7.25 0 13.127-5.877 13.127-13.127v-45.095z" fill="#b1dbfc"/><path d="m177.711 7.646-58.221 58.222h24.258l33.963-33.964z" fill="#8bcaff"/><path d="m240.085 152.049c0 .287-.012.57-.022.855h26.317c.005-.286.022-.568.022-.855 0-29.069-23.565-52.634-52.634-52.634v26.317c14.535 0 26.317 11.783 26.317 26.317z" fill="#ff656f"/><path d="m231.898 171.114c-4.719 4.492-11.1 7.252-18.13 7.252-14.535 0-26.317-11.783-26.317-26.317s11.783-26.317 26.317-26.317v-26.317c-29.069 0-52.634 23.565-52.634 52.634s23.565 52.634 52.634 52.634c14.277 0 27.219-5.69 36.697-14.92z" fill="#ffe181"/><path d="m231.898 171.114 18.567 18.649c9.63-9.377 15.684-22.409 15.916-36.859h-26.317c-.229 7.162-3.321 13.599-8.166 18.21z" fill="#5cb3f8"/><path d="m225.897 258.263h-20.515c-2.557 0-4.631 2.073-4.631 4.631v57.298h29.776v-57.298c0-2.558-2.073-4.631-4.63-4.631z" fill="#ffe181"/><path d="m196.12 276.807h-20.515c-2.557 0-4.631 2.073-4.631 4.631v35.124c0 2.005 1.625 3.631 3.631 3.631h26.146v-38.754c0-2.559-2.073-4.632-4.631-4.632z" fill="#5cb3f8"/><path d="m255.625 239.025h-20.515c-2.557 0-4.631 2.073-4.631 4.631v76.536h26.146c2.005 0 3.631-1.625 3.631-3.631v-72.905c0-2.558-2.074-4.631-4.631-4.631z" fill="#ff656f"/></g><g><path d="m34.506 512.004h442.992c19.026 0 34.505-15.598 34.505-34.77v-20.213c0-7.376-5.975-13.376-13.319-13.376h-25.644c6.131-7.405 9.809-16.846 9.809-26.916v-110.148c0-4.143-3.357-7.5-7.5-7.5s-7.5 3.357-7.5 7.5v110.148c0 13.106-9.631 24.578-22.494 26.916h-378.706c-12.863-2.338-22.493-13.81-22.493-26.916v-261.446c0-15.084 12.271-27.356 27.355-27.356h40.5v16.078h-37.79c-7.583 0-13.753 6.17-13.753 13.754v256.103c0 7.584 6.17 13.754 13.753 13.754h363.561c7.583 0 13.753-6.17 13.753-13.754v-256.103c0-7.584-6.17-13.754-13.753-13.754h-37.789v-16.078h40.5c15.084 0 27.355 12.272 27.355 27.356v116.298c0 4.143 3.357 7.5 7.5 7.5s7.5-3.357 7.5-7.5v-116.298c0-23.355-19.001-42.356-42.355-42.356h-40.5v-92.3c0-11.374-9.254-20.627-20.628-20.627h-105.863c-4.143 0-7.5 3.357-7.5 7.5s3.357 7.5 7.5 7.5h105.863c3.104 0 5.628 2.524 5.628 5.627v345.59c0 2.977-2.422 5.398-5.399 5.398h-247.183c-2.978 0-5.399-2.422-5.399-5.398 0-10.891 0-281.39 0-292.996h37.594c11.374 0 20.627-9.253 20.627-20.627v-37.594h53.27c4.143 0 7.5-3.357 7.5-7.5s-3.357-7.5-7.5-7.5h-60.77c-2.015 0-3.948.842-5.304 2.196l-58.221 58.221c-1.328 1.329-2.196 3.242-2.196 5.304v47.206h-40.5c-23.354 0-42.355 19.001-42.355 42.356v261.446c0 10.07 3.677 19.511 9.809 26.916h-25.646c-7.345 0-13.319 6-13.319 13.376v20.213c0 19.172 15.478 34.77 34.505 34.77zm135.726-486.398v26.987c0 3.103-2.524 5.627-5.627 5.627h-26.987zm-37.821 361.009h247.183c11.248 0 20.399-9.15 20.399-20.398v-207.212h36.542v253.61h-361.066v-253.61h36.543v207.212c0 11.248 9.151 20.398 20.399 20.398zm58.598 72.031h129.986v6.061c0 2.503-2.062 4.618-4.501 4.618h-120.984c-2.439 0-4.501-2.115-4.501-4.618zm-176.008 0h161.008v6.061c0 10.817 8.748 19.618 19.501 19.618h120.984c10.753 0 19.501-8.801 19.501-19.618v-6.061h161.008v18.589c0 10.901-8.75 19.77-19.505 19.77h-442.992c-10.755 0-19.505-8.868-19.505-19.77z"/><path d="m213.79 91.769c-33.158 0-60.135 26.977-60.135 60.135s26.977 60.134 60.135 60.134c32.738 0 59.573-26.222 60.111-59.14.56-34.337-27.306-61.129-60.111-61.129zm18.816 60.134c0 .157-.007.312-.013.469l-.004.128v.005c0 .004-.001.009-.001.013-.32 10.028-8.556 18.201-18.799 18.201-10.376 0-18.817-8.441-18.817-18.816 0-10.376 8.441-18.817 18.817-18.817s18.817 8.441 18.817 18.817zm-18.816 45.134c-24.888 0-45.135-20.247-45.135-45.134 0-22.332 16.305-40.929 37.635-44.512v11.532c-15.05 3.421-26.317 16.909-26.317 32.979 0 18.646 15.17 33.816 33.817 33.816 6.215 0 12.206-1.684 17.424-4.831l8.16 8.196c-7.475 5.17-16.332 7.954-25.584 7.954zm36.355-18.394-7.986-8.02-.122-.122c2.075-3.14 3.602-6.595 4.525-10.242h11.578c-1.241 6.663-3.963 12.924-7.995 18.384zm-3.194-33.385c-2.609-13.04-12.741-23.396-25.661-26.334v-11.532c19.174 3.221 34.287 18.573 37.146 37.866z"/><path d="m296.849 160.258h48c4.143 0 7.5-3.357 7.5-7.5s-3.357-7.5-7.5-7.5h-48c-4.143 0-7.5 3.357-7.5 7.5s3.357 7.5 7.5 7.5z"/><path d="m296.849 191.087h48c4.143 0 7.5-3.357 7.5-7.5s-3.357-7.5-7.5-7.5h-48c-4.143 0-7.5 3.357-7.5 7.5s3.357 7.5 7.5 7.5z"/><path d="m296.849 129.429h48c4.143 0 7.5-3.357 7.5-7.5s-3.357-7.5-7.5-7.5h-48c-4.143 0-7.5 3.357-7.5 7.5s3.357 7.5 7.5 7.5z"/><path d="m296.849 286.962h48c4.143 0 7.5-3.357 7.5-7.5s-3.357-7.5-7.5-7.5h-48c-4.143 0-7.5 3.357-7.5 7.5s3.357 7.5 7.5 7.5z"/><path d="m296.849 317.791h48c4.143 0 7.5-3.357 7.5-7.5s-3.357-7.5-7.5-7.5h-48c-4.143 0-7.5 3.357-7.5 7.5s3.357 7.5 7.5 7.5z"/><path d="m296.849 256.133h48c4.143 0 7.5-3.357 7.5-7.5s-3.357-7.5-7.5-7.5h-48c-4.143 0-7.5 3.357-7.5 7.5s3.357 7.5 7.5 7.5z"/><path d="m235.131 231.378c-6.688 0-12.13 5.441-12.13 12.131v7.107h-17.598c-6.689 0-12.131 5.441-12.131 12.131v6.413h-17.646c-6.689 0-12.131 5.441-12.131 12.131v35.123c0 6.138 4.993 11.131 11.131 11.131h82.02c6.138 0 11.131-4.993 11.131-11.131v-72.905c0-6.689-5.441-12.131-12.131-12.131zm-41.859 81.167h-14.776v-28.385h14.776zm29.729 0h-14.729c0-9.127 0-37.624 0-46.929h14.729zm29.776 0h-14.729c0-48.591-.048-63.954-.048-66.167h14.776v66.167z"/></g></g></svg>