<svg id="Layer_5" enable-background="new 0 0 64 64" height="512" viewBox="0 0 64 64" width="512" xmlns="http://www.w3.org/2000/svg"><g><g><g><path d="m60 50c1.1 0 2 .9 2 2 0 1.66-.67 3.16-1.76 4.24-1.08 1.09-2.58 1.76-4.24 1.76h-34v-8h34z" fill="#969faa"/></g><g><path d="m46 24c0 1.1.9 2 2 2h-16.14l-.02-.01c.72-1.24 1.28-2.58 1.64-3.99h8.52l4-1.5z" fill="#e6e9ed"/></g><g><path d="m22 42c0-1.1-.9-2-2-2h-1c1.1 0 2-.9 2-2v-4.28c1.79-.34 3.48-.98 5-1.87v.01 13.14c0 .55.45 1 1 1h5 4 4 4 4 4 3c.55 0 1-.45 1-1v-18c0-.55-.45-1-1-1h5v.22 19.78c0 2.21-1.79 4-4 4h-34z" fill="#e6e9ed"/></g><g><path d="m56 27v18c0 .55-.45 1-1 1h-3v-16h-4v16h-4v-14h-4v14h-4v-10h-4v10h-5c-.55 0-1-.45-1-1v-13.14-.01c2.43-1.4 4.45-3.43 5.84-5.86l.02.01h16.14 7c.55 0 1 .45 1 1z" fill="#69d6f4"/></g><g><path d="m48 30h4v16h-4z" fill="#fcd770"/></g><g><path d="m40 32h4v14h-4z" fill="#fcd770"/></g><g><path d="m32 36h4v10h-4z" fill="#fcd770"/></g><g><path d="m20 40c1.1 0 2 .9 2 2v8 8c0 1.1-.45 2.1-1.17 2.83-.73.72-1.73 1.17-2.83 1.17-2.21 0-4-1.79-4-4v-16c0-1.1.9-2 2-2h1 2z" fill="#d3a06c"/></g><g><path d="m21 33.72v4.28c0 1.1-.9 2-2 2h-2c-1.1 0-2-.9-2-2v-4.28c.97.18 1.98.28 3 .28 1.03 0 2.03-.1 3-.28z" fill="#ccd1d9"/></g><g><path d="m21 33.72c-.97.18-1.97.28-3 .28-1.02 0-2.03-.1-3-.28-7.4-1.4-13-7.9-13-15.72 0-8.84 7.16-16 16-16 7.45 0 13.7 5.1 15.48 12h-4.18c-1.65-4.66-6.08-8-11.3-8-6.63 0-12 5.37-12 12s5.37 12 12 12c5.22 0 9.65-3.34 11.3-8h4.18c-.36 1.41-.92 2.75-1.64 3.99-1.39 2.43-3.41 4.46-5.84 5.86-1.52.89-3.21 1.53-5 1.87z" fill="#fcd770"/></g><g><path d="m29.3 14h-9.3-4c-2.21 0-4 1.79-4 4 0 1.1.45 2.1 1.17 2.83.73.72 1.73 1.17 2.83 1.17h4 9.3c-1.65 4.66-6.08 8-11.3 8-6.63 0-12-5.37-12-12s5.37-12 12-12c5.22 0 9.65 3.34 11.3 8z" fill="#69d6f4"/></g><g><path d="m42 18v4h-8.52-4.18-9.3v-4z" fill="#b4dd7f"/></g><g><path d="m42 14v4h-22v-4h9.3 4.18z" fill="#ff826e"/></g><g><path d="m20 18v4h-4c-1.1 0-2.1-.45-2.83-1.17-.72-.73-1.17-1.73-1.17-2.83 0-2.21 1.79-4 4-4h4z" fill="#aab2bd"/></g><g><path d="m49.06 16.65c.57.21.94.75.94 1.35s-.37 1.14-.94 1.35l-3.06 1.15-4 1.5v-4-4l4 1.5z" fill="#aab2bd"/></g><g><path d="m62 12v12c0 1.1-.9 2-2 2h-5-7c-1.1 0-2-.9-2-2v-3.5l3.06-1.15c.57-.21.94-.75.94-1.35s-.37-1.14-.94-1.35l-3.06-1.15v-3.5c0-1.1.9-2 2-2h12c1.1 0 2 .9 2 2z" fill="#ffeaa7"/></g></g><g><path d="m61 26.816c1.161-.414 2-1.514 2-2.816v-12c0-1.654-1.346-3-3-3h-12c-1.654 0-3 1.346-3 3v2.057l-2.819-1.057h-7.965c-2.182-7.1-8.733-12-16.216-12-9.374 0-17 7.626-17 17 0 7.994 5.553 14.699 13 16.505v3.495c0 .537.153 1.034.401 1.471-.839.532-1.401 1.464-1.401 2.529v16c0 2.757 2.243 5 5 5 2.414 0 4.434-1.721 4.899-4h33.101c3.86 0 7-3.141 7-7 0-1.654-1.346-3-3-3h-.026c.635-.838 1.026-1.87 1.026-3zm-14-14.816c0-.552.449-1 1-1h12c.551 0 1 .448 1 1v12c0 .552-.449 1-1 1h-5-7c-.551 0-1-.448-1-1v-2.807l1.294-.485 2.706 2.706 8.707-8.707-1.414-1.414-7.293 7.293-.795-.795c.492-.455.795-1.099.795-1.791 0-1.012-.637-1.931-1.585-2.288l-2.415-.905zm4 33h-2v-14h2zm-4-16v16h-2v-14h-6v14h-2v-10h-6v10h-4v-12.594c2.171-1.36 4.021-3.203 5.395-5.406h15.605 7v18h-2v-16zm-4 16h-2v-12h2zm-8 0h-2v-8h2zm13.712-26.585-5.712 2.142v-5.114l5.711 2.141c.173.065.289.232.289.416s-.116.351-.288.415zm-7.712-1.415h-20v-2h20zm-25 4c-1.654 0-3-1.346-3-3s1.346-3 3-3h3v6zm0-8c-2.757 0-5 2.243-5 5s2.243 5 5 5h11.778c-1.861 3.638-5.624 6-9.778 6-6.065 0-11-4.935-11-11s4.935-11 11-11c4.153 0 7.917 2.362 9.778 6zm5 8v-2h20v2zm21.181 2 2.819-1.057v2.057c0 .352.072.686.184 1h-11.708c.29-.643.53-1.314.741-2zm-39.181-5c0-8.271 6.729-15 15-15 6.395 0 12.028 4.052 14.125 10h-2.145c-2.009-4.811-6.731-8-11.98-8-7.168 0-13 5.832-13 13s5.832 13 13 13c5.249 0 9.971-3.189 11.98-8h2.145c-2.097 5.948-7.73 10-14.125 10-8.271 0-15-6.729-15-15zm15 17c.676 0 1.341-.054 2-.132v3.132c0 .552-.449 1-1 1h-2c-.551 0-1-.448-1-1v-3.128c.657.077 1.322.128 2 .128zm3 23c0 1.654-1.346 3-3 3s-3-1.346-3-3v-16c0-.552.449-1 1-1h1 2 1c.551 0 1 .448 1 1zm40-6c0 2.757-2.243 5-5 5h-33v-6h33 4c.551 0 1 .448 1 1zm-38-3v-7c0-1.065-.562-1.997-1.401-2.529.248-.437.401-.934.401-1.471v-3.485c1.038-.252 2.041-.596 3-1.031v11.516c0 1.103.897 2 2 2h28c1.103 0 2-.897 2-2v-18h2v19c0 1.654-1.346 3-3 3z"/><path d="m47 53h2v2h-2z"/><path d="m55 53h2v2h-2z"/><path d="m51 53h2v2h-2z"/></g></g></svg>