<svg height="512" viewBox="0 0 64 64" width="512" xmlns="http://www.w3.org/2000/svg"><g id="Fill_Outline" data-name="Fill Outline"><g id="Stroke_copy" data-name="Stroke copy"><g><rect fill="#e9f1f2" height="38" rx="4" width="58" x="3" y="4"/><path d="m61 31v7a4 4 0 0 1 -4 4h-50a4 4 0 0 1 -4-4v-30a4 4 0 0 1 4-4h7v23a4 4 0 0 0 4 4z" fill="#d0d8da"/><path d="m7 8h46v30h-46z" fill="#84d2f4"/><path d="m7 8v30h46v-30zm43 23h-18a18 18 0 0 1 -18-18v-2h32a4 4 0 0 1 4 4z" fill="#57b7eb"/><g><path d="m33 17a9 9 0 0 0 9 9l5-13z" fill="#f9e109"/><path d="m47 13-5 13a9 9 0 0 1 -9-9l.88-.25a5.375 5.375 0 0 0 1.67 1.83 2.464 2.464 0 0 0 .34.22 5.077 5.077 0 0 0 .81.4c.01 0 .01 0 .02.01a6 6 0 0 0 5.38-.52c.13-.08.24-.16.36-.25a5.087 5.087 0 0 0 .65-.58 6.01 6.01 0 0 0 1.24-1.98l.92-2.39z" fill="#fcbc04"/><path d="m33 17a9 9 0 0 0 9 9v1.813a2 2 0 0 1 -2.337 1.978 13.016 13.016 0 0 1 -10.454-10.454 2 2 0 0 1 1.973-2.337z" fill="#e59730"/><path d="m47 13-1.52 3.95a2.968 2.968 0 0 1 -2.47-2.81z" fill="#f89c8d"/><path d="m43.4 22.35-1.4 3.65a9.059 9.059 0 0 1 -2.96-.5 2.737 2.737 0 0 1 -.04-.5 3 3 0 0 1 4.4-2.65z" fill="#f8664f"/><path d="m40 17a2 2 0 0 1 -4 0 1.9 1.9 0 0 1 .23-.92l2.79-.8a2 2 0 0 1 .98 1.72z" fill="#f89c8d"/><path d="m47 13-1.52 3.95a2.908 2.908 0 0 1 -1.34-.59 3.478 3.478 0 0 0 .21-.48l.92-2.39z" fill="#f8664f"/></g><g><path d="m53 39v11a5.985 5.985 0 0 1 -3 5.19v5.81h-12v-5.07a4.825 4.825 0 0 1 -4-4.75 4.818 4.818 0 0 0 -.64-2.4l-4.02-6.97a2.546 2.546 0 0 1 1.39-3.68 2.6 2.6 0 0 1 3.05 1.22l3.22 5.57v-13.92a2 2 0 0 1 4 0v6a2 2 0 0 1 4 0 2 2 0 0 1 4 0v2a2 2 0 0 1 4 0z" fill="#f9e109"/><g fill="#fcbc04"><path d="m43 35a2 2 0 0 0 -2 2v5a2 2 0 0 0 2-2v-2a1.992 1.992 0 0 1 1.737-1.973 1.992 1.992 0 0 0 -1.737-1.027z"/><path d="m47 35a2 2 0 0 0 -2 2v5a2 2 0 0 0 2-2v-2a1.992 1.992 0 0 1 1.737-1.973 1.992 1.992 0 0 0 -1.737-1.027z"/><path d="m51 37a2 2 0 0 0 -2 2v4a2 2 0 0 0 2-2v-1a1.992 1.992 0 0 1 1.737-1.973 1.992 1.992 0 0 0 -1.737-1.027z"/><path d="m52.91 51a5.939 5.939 0 0 1 -2.91 4.19v5.81h-12v-5.07a4.825 4.825 0 0 1 -4-4.75 4.818 4.818 0 0 0 -.64-2.4l-4.02-6.97a2.546 2.546 0 0 1 1.39-3.68 2.5 2.5 0 0 1 2.29.38 2.531 2.531 0 0 0 -.68 3.3l.55.96a4.465 4.465 0 0 0 4.11 2.23v-14a1.994 1.994 0 0 1 3.74-.97 2 2 0 0 0 -1.74 1.97v7a12 12 0 0 0 12 12z"/></g><path d="m38 59v-3h3a6.709 6.709 0 0 0 -3 3z" fill="#e59730"/></g><path d="m12 13h12v4h-12z" fill="#f8664f"/><path d="m14.46 17h-2.46v-4h2a17.1 17.1 0 0 0 .46 4z" fill="#cc5144"/></g></g><g id="Outline_copy" data-name="Outline copy"><g fill="#464a51"><path d="m57 3h-18a1 1 0 0 0 0 2h18a3 3 0 0 1 3 3v30a3 3 0 0 1 -3 3h-3v-2a3 3 0 0 0 -4.106-2.789 3 3 0 0 0 -4.894-1.445 3.114 3.114 0 0 0 -3-.595v-3.171a2.939 2.939 0 0 0 -.136-.843 3.02 3.02 0 0 0 1.136-2.344v-1.627l4.934-12.827a1 1 0 0 0 -1.208-1.32l-13.866 3.961h-1.678a3 3 0 0 0 -2.31 1.082 2.96 2.96 0 0 0 -.646 2.434 13.969 13.969 0 0 0 8.047 10.249 2.971 2.971 0 0 0 -.273 1.235v10.192l-1.354-2.341a3.534 3.534 0 0 0 -6.419.443 3.529 3.529 0 0 0 -.181 1.706h-21.046a3 3 0 0 1 -3-3v-30a3 3 0 0 1 3-3h28a1 1 0 0 0 0-2h-28a5.006 5.006 0 0 0 -5 5v30a5.006 5.006 0 0 0 5 5h21.872l3.622 6.278a3.826 3.826 0 0 1 .506 1.902 5.8 5.8 0 0 0 4 5.53v4.29a1 1 0 0 0 2 0v-5.07a1 1 0 0 0 -.831-.985 3.81 3.81 0 0 1 -3.169-3.765 5.836 5.836 0 0 0 -.773-2.9l-4.02-6.967a1.548 1.548 0 0 1 .849-2.238 1.609 1.609 0 0 1 1.859.776l3.219 5.569a1 1 0 0 0 1.866-.5v-13.92a1 1 0 0 1 2 0v10a1 1 0 0 0 2 0v-4a1 1 0 0 1 2 0v4a1 1 0 0 0 2 0v-4a1 1 0 0 1 2 0v5a1 1 0 0 0 2 0v-3a1 1 0 0 1 2 0v7a1 1 0 0 0 2 0v-3h3a5.006 5.006 0 0 0 5-5v-30a5.006 5.006 0 0 0 -5-5zm-18.218 13.388a.989.989 0 0 1 .218.612 1 1 0 0 1 -2 0 .855.855 0 0 1 .027-.111zm-.782 3.612a3 3 0 0 0 3-3 2.964 2.964 0 0 0 -.266-1.17l1.53-.437a4 4 0 0 0 1.915 2.155l-1.363 3.543a3.9 3.9 0 0 0 -.816-.091 4 4 0 0 0 -3.859 3 8.011 8.011 0 0 1 -4.1-6.26l1.01-.289a3 3 0 0 0 2.949 2.549zm4 3c.027 0 .052.009.078.01l-.752 1.956a7.863 7.863 0 0 1 -1.3-.222 2 2 0 0 1 1.974-1.744zm2.9-7.336a1.993 1.993 0 0 1 -.709-.823l1.152-.329zm-5.9 12.336a3 3 0 0 0 -1.158.233 11.969 11.969 0 0 1 -7.649-9.074.958.958 0 0 1 .214-.795 1 1 0 0 1 .775-.364h.865a10.02 10.02 0 0 0 8.953 8.951v.862a1.006 1.006 0 0 1 -.31.712 2.973 2.973 0 0 0 -1.69-.525z"/><path d="m53 35a1 1 0 0 0 1-1v-26a1 1 0 0 0 -1-1h-46a1 1 0 0 0 -1 1v30a1 1 0 0 0 1 1h19a1 1 0 0 0 0-2h-18v-28h44v25a1 1 0 0 0 1 1z"/><path d="m58 27v-10a1 1 0 0 0 -2 0v10a1 1 0 0 0 2 0z"/><path d="m53 49a1 1 0 0 0 -1 1 5 5 0 0 1 -2.5 4.323 1 1 0 0 0 -.5.867v5.81a1 1 0 0 0 2 0v-5.261a7.008 7.008 0 0 0 3-5.739 1 1 0 0 0 -1-1z"/><path d="m25 17v-4a1 1 0 0 0 -1-1h-12a1 1 0 0 0 0 2h11v2h-11a1 1 0 0 0 0 2h12a1 1 0 0 0 1-1z"/><path d="m21 21a1 1 0 0 0 -1-1h-8a1 1 0 0 0 0 2h8a1 1 0 0 0 1-1z"/><path d="m25 25a1 1 0 0 1 1 1 1 1 0 0 0 2 0 3 3 0 0 0 -2-2.816v-1.184a1 1 0 0 0 -2 0v1.184a2.993 2.993 0 0 0 1 5.816 1 1 0 1 1 -1 1 1 1 0 0 0 -2 0 3 3 0 0 0 2 2.816v1.184a1 1 0 0 0 2 0v-1.184a2.993 2.993 0 0 0 -1-5.816 1 1 0 0 1 0-2z"/><path d="m17 26a1 1 0 0 0 0-2h-3a1 1 0 0 0 0 2z"/><path d="m19 28h-7a1 1 0 0 0 0 2h7a1 1 0 0 0 0-2z"/><path d="m19 32h-5a1 1 0 0 0 0 2h5a1 1 0 0 0 0-2z"/><circle cx="49" cy="20" r="1"/><circle cx="47" cy="24" r="1"/><circle cx="49" cy="27" r="1"/></g></g></g></svg>